Coordinates
version=1
nRows=19
nColumns=36
inDegrees=yes

Units are S.I. units (second, meters, Newtons, ...)
If the header above contains a line with 'inDegrees', this indicates whether rotational values are in degrees (yes) or radians (no).

endheader
time	pelvis_tilt	pelvis_list	pelvis_rotation	pelvis_tx	pelvis_ty	pelvis_tz	hip_flexion_r	hip_adduction_r	hip_rotation_r	knee_angle_r	knee_angle_r_beta	ankle_angle_r	subtalar_angle_r	mtp_angle_r	hip_flexion_l	hip_adduction_l	hip_rotation_l	knee_angle_l	knee_angle_l_beta	ankle_angle_l	subtalar_angle_l	mtp_angle_l	lumbar_extension	lumbar_bending	lumbar_rotation	arm_flex_r	arm_add_r	arm_rot_r	elbow_flex_r	pro_sup_r	arm_flex_l	arm_add_l	arm_rot_l	elbow_flex_l	pro_sup_l
      3.60000000	    -22.72434371	      5.54121230	     -5.51235810	      1.00085837	      0.90096970	      0.09830641	     56.28334189	    -15.48384903	     -2.02329426	     62.60503380	      1.09266397	     26.68934243	     -4.92682898	     -7.49999987	     56.26254157	     -8.36248793	     -2.53485555	     59.13758597	      1.03214559	     27.27568818	     -0.75100827	     -7.49999987	    -20.68332917	     -3.83107506	      2.72299152	      9.99968375	    -32.27735602	     29.46432105	    106.24403891	     88.21702706	     -3.89598248	    -27.65128400	     11.65277460	    125.59778861	     97.78324648
      3.61666670	    -24.16488035	      5.66895432	     -5.77056826	      0.98979044	      0.88076354	      0.09607582	     60.71081573	    -15.62927918	     -1.93848812	     66.44671228	      1.15971391	     29.28092571	     -3.66532024	     -7.49999987	     60.64456482	     -8.94026375	     -2.35190707	     63.04943020	      1.10042015	     28.65440737	     -1.64336929	     -7.49999987	    -22.78379730	     -3.39908068	      2.27071858	     17.79509609	    -31.17213488	     32.38527852	    106.65452514	     90.31197172	      2.08120538	    -27.01882179	     14.65303469	    124.75580789	     98.44625193
      3.63333330	    -25.36056338	      5.57069897	     -5.98770024	      0.98624563	      0.88452601	      0.09376071	     63.14593675	    -15.69908701	     -2.45373625	     67.64102430	      1.18055858	     30.00122393	     -2.84594139	     -7.49999987	     63.07629950	     -9.33111928	     -2.15031487	     64.24554761	      1.12129634	     29.19617900	     -2.09453262	     -7.49999987	    -24.79761427	     -2.68187740	      1.08800149	     27.01201466	    -28.79844363	     35.82398497	    104.64475219	     95.31926590	      8.16988030	    -25.61460005	     15.14987113	    123.63877303	     97.79091488
      3.65000000	    -27.24680160	      5.87786700	     -6.03712345	      0.96520877	      0.87052112	      0.08409740	     66.86757987	    -16.12097426	     -2.46123986	     68.95543882	      1.20349944	     30.00270938	     -2.26809115	     -7.49999987	     66.62880461	     -9.56556544	     -2.52788149	     65.63018209	      1.14546277	     28.77485128	     -2.52282963	     -7.49999987	    -26.05030191	     -2.15894884	      0.71098197	     34.97497853	    -27.99348391	     38.15128232	    104.89666802	     96.79128845	     16.01903221	    -24.08322176	     17.53169498	    123.27619602	     98.44368756
      3.66666670	    -28.70129444	      6.04849216	     -6.02351405	      0.96504232	      0.86829323	      0.08412591	     69.42670150	    -16.39503649	     -2.60362162	     69.46326632	      1.21236271	     29.62515997	     -2.12884125	     -7.49999987	     69.11178429	     -9.60344470	     -2.66507914	     66.23009667	      1.15593325	     28.43363316	     -3.01572154	     -7.49999987	    -27.15072438	     -1.71554674	      0.73571921	     41.50933502	    -26.82973802	     40.10248635	    105.50861025	     98.06118108	     21.84155392	    -21.99783347	     19.41219577	    123.20894253	     98.95379260
      3.68333330	    -29.49105877	      6.19863860	     -6.14580640	      0.97040726	      0.86718389	      0.08219074	     70.68784694	    -16.62994011	     -2.70050903	     69.40346962	      1.21131906	     29.17871540	     -1.98649096	     -7.49999987	     70.19908742	     -9.50045740	     -2.72064686	     66.17014449	      1.15488689	     28.24225721	     -3.15221701	     -7.49999987	    -28.39707398	     -1.54820112	      0.27864055	     47.00661109	    -25.64590451	     42.52606962	    105.27614705	    103.40992491	     23.94930933	    -18.81519586	     18.99036939	    123.04102192	    102.99816542
      3.70000000	    -30.13584083	      6.31707055	     -6.17675969	      0.96430570	      0.86729577	      0.08429955	     71.54828871	    -16.69958048	     -2.65369420	     69.11586517	      1.20629941	     28.59433265	     -2.17434447	     -7.49999987	     70.97214038	     -9.42062560	     -2.77157125	     66.00931764	      1.15207993	     27.82037583	     -3.30469917	     -7.49999987	    -29.48338158	     -1.51615635	      0.69521145	     52.44944566	    -25.17479015	     43.86250677	    106.70713104	    103.76000101	     28.85580473	    -18.01006533	     20.81492134	    123.74855028	    103.51073267
      3.71666670	    -30.72165147	      6.37989613	     -6.18990168	      0.96337226	      0.86542859	      0.08385978	     72.13060452	    -16.69770940	     -2.66140018	     68.68885758	      1.19884672	     28.07949507	     -2.44297320	     -7.49999987	     71.54620748	     -9.36471665	     -2.71959182	     65.78815181	      1.14821986	     27.61946262	     -3.25924262	     -7.49999987	    -30.08461848	     -1.37608313	      1.60397738	     56.47975663	    -25.34561119	     42.84264841	    108.52168489	    104.23654902	     36.06919169	    -17.37487299	     23.40921715	    123.39079627	    105.13296772
      3.73333330	    -31.19546147	      6.48136019	     -6.16909772	      0.96293970	      0.86672924	      0.08380376	     72.51033684	    -16.73566632	     -2.67916537	     68.17969609	      1.18996018	     27.58735358	     -2.68045527	     -7.49999987	     71.94764848	     -9.26720009	     -2.70621108	     65.46969117	      1.14266167	     27.39985881	     -3.18284935	     -7.49999987	    -30.42856788	     -1.31088179	      2.16266784	     59.26425137	    -24.82936863	     42.91419995	    111.04185344	    103.34022277	     41.24745096	    -16.65215219	     24.69170659	    123.31019470	    105.20002419
      3.75000000	    -31.60780708	      6.56669220	     -5.97436396	      0.95739500	      0.86691403	      0.07973126	     72.81338280	    -16.90111112	     -2.73972895	     67.62494459	      1.18027794	     26.96286418	     -3.04175980	     -7.49999987	     72.31068052	     -9.08468187	     -2.75028667	     65.14318609	      1.13696308	     26.84692820	     -3.34223737	     -7.49999987	    -30.75996404	     -1.07883410	      2.21122302	     62.60558243	    -23.90435933	     42.61971383	    112.66837415	    103.28905888	     45.38826671	    -16.36048215	     25.24595450	    123.71581165	    105.42816391
      3.76666670	    -31.82807834	      6.65608251	     -5.85409531	      0.95705542	      0.86599122	      0.07946310	     72.87893887	    -17.03802637	     -2.77739605	     67.10460482	      1.17119630	     26.52592978	     -3.16127732	     -7.49999987	     72.37003446	     -8.88118061	     -2.71144773	     64.81063835	      1.13115903	     26.55925020	     -3.36017100	     -7.49999987	    -30.80990917	     -1.09128865	      2.52234991	     63.95570221	    -23.64156833	     41.77732860	    114.45397932	    102.45764290	     47.91385391	    -15.95017026	     25.45833058	    123.83044889	    105.84718457
      3.78333330	    -31.98109270	      6.70945780	     -5.75632414	      0.95633532	      0.86477581	      0.07907099	     72.98806355	    -17.14260024	     -2.78784593	     66.80841892	      1.16602688	     26.14216059	     -3.27916748	     -7.49999987	     72.46786276	     -8.70849427	     -2.59929318	     64.60885635	      1.12763727	     26.47326699	     -3.29639332	     -7.49999987	    -30.57912456	     -1.08269365	      2.81345611	     65.35138610	    -23.12185573	     41.18090157	    117.04894324	    101.52430644	     50.53070318	    -15.99802134	     26.11862020	    125.90275250	    105.98849205
      3.80000000	    -32.12997448	      6.73826893	     -5.55306840	      0.95122398	      0.86819224	      0.07512969	     73.04979987	    -17.34340690	     -2.86763797	     66.42193559	      1.15928147	     25.64241548	     -3.53785064	     -7.49999987	     72.61023712	     -8.44730231	     -2.49363120	     64.36989315	      1.12346657	     26.12784466	     -3.46063801	     -7.49999987	    -30.43635190	     -0.86059393	      2.78086508	     67.22263271	    -22.48549916	     40.78667354	    118.86094950	    101.33855006	     52.87610463	    -16.31135819	     26.59568696	    127.26448320	    105.97290592
      3.81666670	    -32.03525259	      6.79816528	     -5.51639345	      0.95534775	      0.86515126	      0.07888828	     72.89604120	    -17.43619596	     -2.87206834	     66.22980590	      1.15592818	     25.45276771	     -3.73581217	     -7.49999987	     72.45385327	     -8.25820731	     -2.34574381	     64.29354882	      1.12213411	     26.18814495	     -3.47350195	     -7.49999987	    -30.30807393	     -0.93865823	      2.74325504	     67.67435721	    -21.62615161	     40.10096483	    120.14030091	    101.06115344	     53.60559766	    -16.84410540	     26.67840705	    128.46890681	    105.83414020
      3.83333330	    -32.06573279	      6.90311839	     -5.45301502	      0.95006294	      0.86398223	      0.07502573	     73.05045749	    -17.59160907	     -2.79304553	     66.20044272	      1.15541569	     25.35439361	     -3.79069612	     -7.49999987	     72.54461979	     -8.04917115	     -2.27857903	     64.33021894	      1.12277413	     26.28418303	     -3.44187090	     -7.49999987	    -29.64639779	     -0.87192712	      2.88383106	     68.51138080	    -21.15405829	     39.73768598	    120.66179969	    101.00538078	     54.53250830	    -16.69285063	     26.50487782	    129.03721678	    105.79329689
      3.85000000	    -31.90441926	      7.00006294	     -5.38792674	      0.94923422	      0.86293881	      0.07495354	     73.01323755	    -17.71103308	     -2.64791561	     66.29892741	      1.15713457	     25.23871856	     -4.03551793	     -7.49999987	     72.46479365	     -7.85570655	     -2.25748580	     64.44119046	      1.12471095	     26.41783810	     -3.43372075	     -7.49999987	    -29.15608778	     -0.99664919	      2.57318472	     68.52627452	    -20.53615230	     39.23962647	    123.66142912	     99.71522635	     55.17819122	    -17.40730882	     26.33525361	    131.97412308	    104.72560573
      3.86666670	    -31.63147140	      7.04350335	     -5.33221365	      0.94953188	      0.86780621	      0.07552163	     72.59910009	    -17.85174568	     -2.70014895	     66.04497368	      1.15270225	     25.14670583	     -4.22142682	     -7.49999987	     72.04904951	     -7.64859963	     -2.19572888	     64.24099967	      1.12121696	     26.40142568	     -3.62384389	     -7.49999987	    -28.57006883	     -0.95688534	      2.49866709	     68.19133326	    -20.56290345	     38.75930629	    123.67370967	     99.66226126	     55.30617178	    -17.84576018	     26.01244638	    132.18793375	    104.63880661
      3.88333330	    -31.31066955	      7.20866718	     -5.28598949	      0.94864994	      0.86762685	      0.07551638	     72.31915255	    -17.98606951	     -2.55357969	     65.96176141	      1.15124992	     24.97750292	     -4.56622824	     -7.49999987	     71.61500757	     -7.45161799	     -2.33345797	     64.08808017	      1.11854801	     26.15203036	     -4.00751715	     -7.49999987	    -27.96810899	     -1.06262759	      1.96445639	     67.52951541	    -19.39201278	     37.88811721	    124.29817836	     98.33284757	     54.93861568	    -18.62333751	     25.14576747	    133.10488278	    102.03401573
      3.90000000	    -30.87094907	      7.21218997	     -5.30650149	      0.94893173	      0.87512214	      0.07569927	     71.53220002	    -18.03137367	     -2.67446838	     65.41087970	      1.14163522	     24.70155694	     -4.67736825	     -7.49999987	     70.81587252	     -7.32946652	     -2.34336347	     63.55522953	      1.10924801	     25.98182184	     -4.12875704	     -7.49999987	    -27.64644225	     -1.09729261	      1.82863993	     66.37705842	    -19.68538977	     38.01764144	    124.69785029	     98.32123151	     54.45901201	    -19.06999678	     24.86428706	    132.97049286	    101.91085678
